/* XPM */
static char *_7c10ebe88f84d42b208c37503b10c985gTZuFlnIqyADRpk[] = {
/* columns rows colors chars-per-pixel */
"64 64 240 2 ",
"   c None",
".  c black",
"X  c #000100",
"o  c #010100",
"O  c #010101",
"+  c #020201",
"@  c #020301",
"#  c #020202",
"$  c gray1",
"%  c #050603",
"&  c #040404",
"*  c gray2",
"=  c #060606",
"-  c #070707",
";  c #070803",
":  c #070904",
">  c #080905",
",  c gray3",
"<  c #090909",
"1  c gray4",
"2  c #0C0C0B",
"3  c #0C0C0C",
"4  c gray5",
"5  c #0E0E0E",
"6  c gray6",
"7  c #0F100F",
"8  c #101308",
"9  c #15190B",
"0  c #191F0D",
"q  c #101010",
"w  c #111111",
"e  c gray7",
"r  c #131313",
"t  c gray8",
"y  c #151515",
"u  c #151614",
"i  c #161616",
"p  c #181818",
"a  c #191919",
"s  c gray10",
"d  c #1B1B1B",
"f  c gray11",
"g  c #1D1D1D",
"h  c #1E1E1E",
"j  c gray12",
"k  c #1F2610",
"l  c #222911",
"z  c #293215",
"x  c #2A3315",
"c  c #202020",
"v  c gray13",
"b  c #222222",
"n  c #232323",
"m  c gray14",
"M  c #252525",
"N  c gray15",
"B  c #272727",
"V  c #282828",
"C  c gray16",
"Z  c #2A2A2A",
"A  c gray17",
"S  c #2C2C2C",
"D  c #2D2D2D",
"F  c gray18",
"G  c #313131",
"H  c #323232",
"J  c gray20",
"K  c #343434",
"L  c #353535",
"P  c gray21",
"I  c #373737",
"U  c gray22",
"Y  c #393939",
"T  c #3A3A3A",
"R  c gray24",
"E  c #3E3E3E",
"W  c #35411B",
"Q  c #38451D",
"!  c #3E4B1F",
"~  c #404E20",
"^  c #435122",
"/  c #475724",
"(  c #485725",
")  c #4D5E27",
"_  c #4F5C33",
"`  c #505D33",
"'  c #637832",
"]  c #687E35",
"[  c #697F35",
"{  c gray25",
"}  c #414141",
"|  c gray26",
" . c #434343",
".. c #444444",
"X. c gray27",
"o. c #464646",
"O. c gray28",
"+. c #484848",
"@. c #494949",
"#. c gray29",
"$. c #4B4B4B",
"%. c #4C4C4C",
"&. c gray30",
"*. c #4E4E4E",
"=. c gray31",
"-. c #515151",
";. c gray32",
":. c #535353",
">. c gray33",
",. c #555555",
"<. c #565656",
"1. c gray34",
"2. c #585858",
"3. c gray35",
"4. c #5A5A5A",
"5. c #5B5B5B",
"6. c gray36",
"7. c #5D5D5D",
"8. c gray37",
"9. c #5F5F5F",
"0. c #6A7C44",
"q. c #606060",
"w. c gray38",
"e. c #626262",
"r. c gray39",
"t. c #646464",
"y. c #656565",
"u. c gray40",
"i. c #676767",
"p. c #686868",
"a. c DimGray",
"s. c #6A6A6A",
"d. c gray42",
"f. c #6C6C6C",
"g. c #6D6D6D",
"h. c gray43",
"j. c #6F6F6F",
"k. c gray44",
"l. c #717171",
"z. c #727272",
"x. c gray45",
"c. c gray46",
"v. c #777777",
"b. c #7C7C7C",
"n. c gray49",
"m. c #7E7E7E",
"M. c #829F42",
"N. c #8CAA47",
"B. c #91A95D",
"V. c #9FC251",
"C. c #A4C753",
"Z. c #A8CC55",
"A. c #B3DA5B",
"S. c #B6DD5C",
"D. c #B9E15E",
"F. c #BBE35F",
"G. c #ABC66E",
"H. c #B1CE72",
"J. c #BCE560",
"K. c #BDE660",
"L. c #808080",
"P. c #818181",
"I. c gray51",
"U. c #838383",
"Y. c #848484",
"T. c gray52",
"R. c #868686",
"E. c gray53",
"W. c #888888",
"Q. c gray56",
"!. c #909090",
"~. c #929292",
"^. c gray58",
"/. c #959595",
"(. c #979797",
"). c #9D9D9D",
"_. c #9F9F9F",
"`. c #A2A2A2",
"'. c gray64",
"]. c #A7A7A7",
"[. c #A9A9A9",
"{. c #AAAAAA",
"}. c gray67",
"|. c #ACACAC",
" X c #AEAEAE",
".X c #AFAFAF",
"XX c gray69",
"oX c #B2B2B2",
"OX c #B4B4B4",
"+X c gray72",
"@X c #B9B9B9",
"#X c gray73",
"$X c #BBBBBB",
"%X c #BCBCBC",
"&X c gray",
"*X c gray75",
"=X c #C1C1C1",
"-X c gray76",
";X c #C3C3C3",
":X c #C8C8C8",
">X c gray79",
",X c #CACACA",
"<X c #CBCBCB",
"1X c gray80",
"2X c #CDCDCD",
"3X c #CECECE",
"4X c #D0D0D0",
"5X c gray82",
"6X c gray84",
"7X c #D7D7D7",
"8X c #D8D8D8",
"9X c #DADADA",
"0X c gray86",
"qX c gainsboro",
"wX c #DDDDDD",
"eX c gray87",
"rX c gray88",
"tX c #E1E1E1",
"yX c #E2E2E2",
"uX c gray89",
"iX c gray90",
"pX c #E6E6E6",
"aX c #E7E7E7",
"sX c gray91",
"dX c #E9E9E9",
"fX c #EAEAEA",
"gX c gray92",
"hX c #ECECEC",
"jX c gray93",
"kX c #EEEEEE",
"lX c #EFEFEF",
"zX c gray94",
"xX c #F1F1F1",
"cX c gray95",
"vX c #F3F3F3",
"bX c #F4F4F4",
"nX c gray96",
"mX c #F6F6F6",
"MX c gray98",
"NX c #FDFDFD",
/* pixels */
"                                                                                                                                ",
"                                                                                                                                ",
"                                                        . . . . . . . .                                                         ",
"                              . . . .               . . . . . . . . . . . . . .           . . . .                               ",
"                          . . . . . . . .   . .   mXO.7.`.-XqXmXaXrX-X).r.j . . . .   . . . . . . . .                           ",
"                        . . 4 *.f.f.:.e . . . . %XmXmXmXmXmXvXmXvXvXmXmXmXmXOX:.- . . . e *.f.d.*.e . .                         ",
"                        . 4 d.x.x.x.x.D . . O.<XmXmXvXvXvXvXmXmXmXmXmXvXmXvXmXmX<XY . . D x.x.x.x.d.e .                         ",
"                      . . *.x.x.c.f.M . 1 /.vXmXmXmXmXmXmXmXmXvXmXvXmXvXmXmXmXmXmXmX!.- . b x.x.x.x.$.. .                       ",
"                      . . f.c.x.x.M . e -XmXvXmXmXmXmXvXmXvXvXmXmXmXvXmXmXmXvXvXmXmXmX%Xi . A x.x.x.d.. .                       ",
"                      . . f.x.x.L . e 2XmXmXmXmXvXvXmXmXmXmXmXmXvXmXvXmXvXmXmXmXmXvXmXmX-X4 . L x.x.d.. .                       ",
"                      . . *.x.:.. - OXvXmXmXvXvXmXmXvXmXvXmXmXvXmXvXmXmXvXmXmXvXmXmXmXvXmXoX- . 2.x.*.. .                       ",
"                        . 4 d.e . Y.mXmXvXmXmXvXaXvXmXmXvXmXmXvXmXmXmXvXmXmXvXaXvXvXmXmXmXmXP.. i u.e .                         ",
"                        . . - . A kXmXmXmXmX/.a . a /.mXvXmXmXmXvXmXmXmXmX`.j . i /.mXmXmXmXvXA . - . .                         ",
"                          . . . {.vXmXvXvXd.. . - . . r.vXmXvXmXvXmXmXvXr.. . . . . f.vXmXvXmX{.. . .                           ",
"                            . j vXmXmXmXn.. . $.x.$.- . Y.mXmXvXmXmXmXP.. - $.x.$.. . n.mXvXmXvXb .                             ",
"                          . . x.mXmXmX|.. . $.x.x.x.:.. j vXmXmXmXvXvXa . >.f.x.x.*.. j aXmXmXvXf.. .                           ",
"                          . . |.mXmXaXa . E r.b . - b . 1 mXvXmXmXmXmX1 . b . - b r.*.W.vXvXvXmXoX. .                           ",
"                          . . 7XmXmXY.. a r.1 . . . . . L mXmXmXvXvXmXL . . . . . 1 r.x.-X<XmXmX0X. .                           ",
"                          . . gXmXmXM . >.M . *.dX0X1 . /.mXmXmXmXmXmX!.. 1 6XrX*.. M r.4 M mXmXkX. .                           ",
"                          . . kXbXrX. - x.- . aXMXd.. H dXY.H 1 1 D W.dXH . u.MXrX. - f.- . rXmXkX. .                           ",
"                          . . 0XmX2X. e x.. . dX{.. 1 %XH . . . . . . L -X- . ].rX. . c.e . 2XmX6X. .                           ",
"                          . . |.mXqX. 1 x.j . | 4 . Q.r.. e 2.c.c.2.e . r.Q.. 4 | . j x.- . qXmX{.. .                           ",
"                          . . i.mXvXj . :.7.- . . >.mXe . d.P.P.P.P.d.. e mX>.. . - r.*.. b vXmXu.. .                           ",
"                            . r dXmXY.. 4 7.b . M dXvX4 . d.P.P.n.n.d.. e mXdXM . b 7.1 . Y.mXdX4 .                             ",
"                            . . n.mXvXE . . . 4 5XmXmXu.. e >.c.b.>.e . d.mXvX2X4 . . . | vXmXb.. .                             ",
"                              . 1 <XmXdXd.4 b %XmXmXmXdXY . . . . . . Y dXmXmXmX#Xb 4 d.dXvX<X- .                               ",
"                              . . M rXmXvXvXmXmXmXvXmXmXvXQ.Y . . Y Q.vXvXmXmXmXmXvXvXmXmXqXM . .                               ",
"        . .       . . . .       . . A 0XmXmXvXvXmXmXmXvXmXvXP.. . P.vXvXmXmXvXmXmXvXmXmX0XA . .                                 ",
"          . .   . . . . .         . . a {.mXmXmXvXmXmX. . . . . . . . . . mXmXvXmXvXmX{.a . .                                   ",
"          . . . . > B.. .           . . . $.6XmXvXmXmX. . - L |.|.H - . . mXmXmXmX0X$.. . .                                     ",
"            . . . 0.G.. .             . . . - *.{.vXmXmXmXvXmXmXmXmXvXmXmXmXvX{.$.. . . .                                       ",
"            . . . H.` . .           . . . b . . . e O.n.oX<X0XdXkXqX<XoXn.O.e . . . A e . .                                     ",
"              . . ` . .     . . . . . 1 >.x.d.Y e . . . . . . . . . . . . . . i Y u.x.f.b . .                                   ",
"              @ . . .     . . ; . . j d.x.x.x.x.x.u.O.H j e 1 . . 1 4 j L O.u.x.x.x.x.x.x.Y . . .                               ",
"                . .     . . ! ] . j x.x.x.x.x.x.x.x.x.x.x.x.x.x.c.x.x.x.x.x.x.x.x.x.x.x.x.x.*.- . .                             ",
"                . .     . l D.] . H x.x.x.x.x.x.x.x.x.r.H i - . . - i L 7.x.x.x.x.x.x.x.x.x.x.r.e . .                           ",
"    . @ . . . . . . . . . N.K.W . O.x.x.x.x.x.x.x.x.H . . . . . . . . . . H x.x.x.x.x.x.x.x.x.x.f.M . .                         ",
"    . . 8 0 > . . . . . 9 K.Z.% . d.x.x.x.x.x.x.x.j . - d.-XkXNXNXkX-Xd.- . j x.x.x.x.x.x.x.x.x.x.x.Y e                         ",
"    . . l S.A.N.x . . . ^ K.Q . M x.x.x.x.x.x.x.H . a 2XNXNXNXNXNXNXNXNX<Xi . H x.x.x.x.x.x.x.x.x.x.x.f.x.                      ",
"      @ : x N.K.F.' . . / ) . - u.x.x.x.x.x.x.7.. - <XNXNXNXNXNXNXNXNXNXNX<X- . 7.x.x.x.x.x.x.x.x.x.x.x.x.$.. .                 ",
"        . . ; ( N.V.! . . . . :.x.x.x.x.x.x.x.M . d.MXNXNXNXNXNXNXNXNXNXNXNXu.. M c.x.x.x.x.x.x.x.x.x.x.c.f.M . .               ",
"          . . . . . . . . 2 >.x.x.x.x.x.x.x.f.e - qXNXNXNXNXNXNXNXNXNXNXNXNXqX1 . u.x.x.x.c.x.x.x.x.x.x.x.x.x.D . .             ",
"            . . j 4 i a . e x.x.$.e a c.x.x.c.oX<XMXNXNXNXNXNXNXNXNXNXNXNXNXNX2.. L x.x.x.a e $.x.x.x.x.x.x.x.d.. .             ",
"            . . i.x.x.x.e . D e . . . f.x.f.r.kXNXNXNXNXNXNXNXNXNXNXNXNXNXNXNX<X. - f.x.f.. . . e O.x.x.x.x.x.d.. .             ",
"            . . D c.x.x.D . . . . . . 7.x.| . c.NXNXNXNXNXNXNXNXNXNXNXNXNXNXNXNXE . | x.7.. . . . . e $.x.x.x.D . .             ",
"              . . i D 4 . . . .   . . :.x.4 . |.NXNXNXNXNXNXNXNXNXNXNXNXNXNXNXNX|.. e c.:.. .     . . . 4 D i . .               ",
"                . . . . . . . .   . . O.u.. a MXNXNXNXNXNXNXNXNXNXNXNXNXNXNXNXNXMXe . u.O.. .         . . . . .                 ",
"                            . .   . . Y >.. | NXNXNXNXNXNXNXNXNXNXNXNXNXNXNXNXNXNXL . >.Y . .                                   ",
"                              . .   . A >.. Y NXNXNXNXNXNXNXNXNXNXNXNXNXNXNXNXNXNXL . 2.D .                                     ",
"                                    . b f.- . %XNXNXNXNXNXNXNXNXNXNXNXNXNXNXNXNX#X. - f.j .                                     ",
"                                    . e c.Y . . :.].5XdXMXNXNXNXNXNXNXMXdX5X`.>.. . Y x.e .                                     ",
"                                    . - x.x.L - . . . . . . . . . . . . . . . . . Y x.x.- .                                     ",
"                                    . . f.x.x.u.| M i 4 - . . . . . . . 1 e M | f.x.x.d.. .                                     ",
"                                    . . 7.x.x.x.x.x.x.x.x.x.x.x.x.x.c.c.x.x.x.x.c.x.c.7.. .                                     ",
"                                    . . >.x.x.x.x.x.x.x.f.O.a - - a | x.x.x.x.x.x.x.x.:.. .                                     ",
"                                    . . O.x.x.x.x.x.x.d.a . . . . . . a u.x.x.x.x.x.x.O.. .                                     ",
"                                    . . Y x.x.x.x.x.x.j . .         . . j x.x.x.x.x.x.Y . .                                     ",
"                                      . A x.x.x.x.x.$.. .             . . $.x.x.x.x.x.M .                                       ",
"                                      . - d.x.c.x.f.e .                 . e f.c.x.x.f.1 .                                       ",
"                                      . . a 2.f.7.j . .                 . . j r.x.7.j . .                                       ",
"                                        . . . . . . .                     . . . . . . .                                         ",
"                                          . . . . .                         . . . . .                                           ",
"                                                                                                                                ",
"                                                                                                                                "
};
