/* XPM */
static char *result[] = {
/* columns rows colors chars-per-pixel */
"64 64 139 2 ",
"   c #000000",
".  c #0A0502",
"X  c #0D0A00",
"o  c #0B0A09",
"O  c #100606",
"+  c #140B02",
"@  c #1C0D03",
"#  c #110C0B",
"$  c #1B0909",
"%  c #151100",
"&  c #1A1600",
"*  c #161312",
"=  c #1A1C1C",
"-  c #210F03",
";  c #250D0C",
":  c #290E0E",
">  c #231103",
",  c #2A1404",
"<  c #221C00",
"1  c #2E100F",
"2  c #301704",
"3  c #331804",
"4  c #3B1C05",
"5  c #3A1413",
"6  c #262000",
"7  c #2B2400",
"8  c #362D00",
"9  c #2A2E2E",
"0  c #312725",
"q  c #303434",
"w  c #421F06",
"e  c #411616",
"r  c #471918",
"t  c #4B1A19",
"y  c #561E1D",
"u  c #591F1E",
"i  c #462106",
"p  c #4A2306",
"a  c #502607",
"s  c #572908",
"d  c #5B2B08",
"f  c #453900",
"g  c #4B3D00",
"h  c #5C201E",
"j  c #622E08",
"k  c #663009",
"l  c #6B3209",
"z  c #72360A",
"x  c #7B3A0B",
"c  c #5F2120",
"v  c #622221",
"b  c #6D2624",
"n  c #702725",
"m  c #752927",
"M  c #772928",
"N  c #7D2C2A",
"B  c #564700",
"V  c #5B4C00",
"C  c #746100",
"Z  c #7B6600",
"A  c #53433F",
"S  c #404545",
"D  c #464B4B",
"F  c #656C6C",
"G  c #6B7373",
"H  c #727A7A",
"J  c #843E0B",
"K  c #832E2C",
"L  c #8C302F",
"P  c #933331",
"I  c #9D3735",
"U  c #A33937",
"Y  c #A63A38",
"T  c #AC3C3A",
"R  c #B33E3C",
"E  c #8B420C",
"W  c #92450D",
"Q  c #9D4A0E",
"!  c #A54E0E",
"~  c #AC510F",
"^  c #B3540F",
"/  c #B55510",
"(  c #B95710",
")  c #BE5910",
"_  c #8A7300",
"`  c #977E00",
"'  c #997D01",
"]  c #B9403D",
"[  c #C35C11",
"{  c #C95E11",
"}  c #CC6012",
"|  c #D76513",
" . c #D86613",
".. c #E46B14",
"X. c #EA6F14",
"o. c #EF7015",
"O. c #F37215",
"+. c #FC7716",
"@. c #FF7816",
"#. c #BE4240",
"$. c #C34441",
"%. c #CB4644",
"&. c #CE4845",
"*. c #D14946",
"=. c #D74B48",
"-. c #DE4D4A",
";. c #E34F4C",
":. c #E7504D",
">. c #EB524F",
",. c #EF5350",
"<. c #9D8300",
"1. c #A08500",
"2. c #A48800",
"3. c #AB8E00",
"4. c #AE9100",
"5. c #BB9B00",
"6. c #DF910A",
"7. c #C3A200",
"8. c #CCAA00",
"9. c #D3AF00",
"0. c #DAB500",
"q. c #E2BC00",
"w. c #FFB906",
"e. c #FFB108",
"r. c #EEC600",
"t. c #FFC005",
"y. c #F6CC00",
"u. c #F9CF00",
"i. c #FFD400",
"p. c #919C9C",
"a. c #97A2A2",
"s. c #98A4A4",
"d. c #9FABAB",
"f. c #AFBDBD",
"g. c #B9C6C6",
"h. c #BDCBCB",
"j. c #C2D0D0",
"k. c #D4E4E4",
"l. c None",
/* pixels */
"l.l.l.l.l.l.l.l.l.l.l.l.l.l.l.l.l.l.l.l.l.l.l.l.l.l.l.l.                l.l.l.l.l.l.l.l.l.l.l.l.l.l.l.l.l.l.l.l.l.l.l.l.l.l.l.l.",
"l.l.l.l.l.l.l.l.l.l.l.l.l.l.l.l.l.l.l.l.l.l.l.l.l.            + X             l.l.l.l.l.l.l.l.l.l.l.l.l.l.l.l.l.l.l.l.l.l.l.l.l.",
"l.l.l.l.l.l.l.l.l.l.l.l.l.l.l.l.l.l.l.l.l.l.l.          2 .   8.8.. . 2           l.l.l.l.l.l.l.l.l.l.l.l.l.l.l.l.l.l.l.l.l.l.l.",
"l.l.l.l.l.l.l.l.l.l.l.l.l.l.l.l.l.l.l.l.l.    . y .   E (   B i.i.V   ( E   . h .   . l.l.l.l.l.l.l.l.l.l.l.l.l.l.l.l.l.l.l.l.l.",
"l.l.l.l.l.l.l.l.l.l.l.l.l.l.l.l.l.l.l.l.    v %.:   Q @.s   7.i.i.7.  s @.Q   ; %.h     l.l.l.l.l.l.l.l.l.l.l.l.l.l.l.l.l.l.l.l.",
"l.l.l.l.l.l.l.l.l.l.l.l.l.l.l.l.l.l.l.  . I ,.h   E @.+.+ % i.i.i.i.& + +.@.E   v ,.I .   l.l.l.l.l.l.l.l.l.l.l.l.l.l.l.l.l.l.l.",
"l.l.l.l.l.l.l.l.l.l.l.l.l.l.l.l.l.l.  $ %.,.T   w +.@.{   V i.i.i.i.V   { @.+.4   T ,.%.$   l.l.l.l.l.l.l.l.l.l.l.l.l.l.l.l.l.l.",
"l.l.l.l.l.l.l.l.l.l.l.l.l.l.l.l.l.  $ %.,.,.; . ..@.@.W   2.i.i.i.i.2.  E @.@.... : ,.,.%.$   l.l.l.l.l.l.l.l.l.l.l.l.l.l.l.l.l.",
"l.l.l.l.l.l.l.l.l.l.l.l.l.l.l.l.  O %.,.,.I   z @.@.@.k   9.i.i.i.i.9.  s @.@.@.l   I >.,.%..   l.l.l.l.l.l.l.l.l.l.l.l.l.l.l.l.",
"l.l.l.l.l.l.l.l.l.l.l.l.l.l.l.    U ,.,.,.1 . X.@.@.@.4 . i.i.i.i.i.i.. , +.@.@.... 1 ,.,.,.U     l.l.l.l.l.l.l.l.l.l.l.l.l.l.l.",
"l.l.l.l.l.l.l.l.l.l.l.l.l.l.    v ,.,.,.#.  j @.@.@.@.X 7 i.i.i.i.i.i.8 . +.@.@.@.j   $.,.,.,.v     l.l.l.l.l.l.l.l.l.l.l.l.l.l.",
"l.l.l.l.l.l.l.l.l.l.l.l.l.l.  $ ;.,.,.,.v   ) @.@.@. .  B i.i.i.i.i.i.B    .@.@.@.)   v ,.,.,.;.$   l.l.l.l.l.l.l.l.l.l.l.l.l.l.",
"l.l.l.l.l.l.l.l.l.l.l.l.l.    L ,.,.,.,.$ @ @.@.@.@.}   _ i.i.i.i.i.i.Z   ) @.@.@.@.@ $ ,.,.,.,.L     l.l.l.l.l.l.l.l.l.l.l.l.l.",
"l.l.l.l.l.l.l.l.l.l.l.l.l.  ; >.,.,.,.$.  l @.@.@.@.@.6.i.i.i.i.i.i.i.<.  ! @.@.@.@.k   $.,.,.,.:.$   l.l.l.l.l.l.l.l.l.l.l.l.l.",
"l.l.l.l.l.l.l.l.l.l.l.l.l.  K >.,.,.,.N   ~ @.@.@.@.@.e.i.i.i.i.i.i.i.5.  E @.@.@.@.!   N ,.,.,.,.K   l.l.l.l.l.l.l.l.l.l.l.l.l.",
"l.l.l.l.l.l.l.l.l.l.l.l.    =.,.,.,.,.t   ..@.@.@.@.@.w.i.i.i.i.i.i.i.8.  z @.@.@.@.X.  y >.,.,.,.=.    l.l.l.l.l.l.l.l.l.l.l.l.",
"l.l.l.l.l.l.l.l.l.l.l.l.  e ,.,.,.,.,.$ - @.@.@.@.@.@.t.i.i.i.i.i.i.i.q.  d @.@.@.@.@.> $ ,.,.,.,.,.e   l.l.l.l.l.l.l.l.l.l.l.l.",
"l.l.l.l.l.l.l.l.l.l.l.l.  K ,.,.,.,.;.  p @.@.@.@.@.x g i.i.i.i.i.i.i.y.  i @.@.@.@.@.i   ;.,.,.,.,.K   l.l.l.l.l.l.l.l.l.l.l.l.",
"l.l.l.l.l.l.l.l.l.l.l.    R ,.,.,.,.$.  l @.@.@.@.@.4 X i.i.i.i.i.i.i.i.. 4 @.@.@.@.@.l   $.,.,.,.,.]     l.l.l.l.l.l.l.l.l.l.l.",
"l.l.l.l.l.l.l.l.l.l.l.  . ;.,.,.,.,.Y   W @.@.@.@.@.~ ` i.i.i.i.i.i.i.i.% 3 @.@.@.@.@.E   U ,.,.,.,.;..   l.l.l.l.l.l.l.l.l.l.l.",
"l.l.l.l.l.l.l.l.l.l.l.  : ,.,.,.,.,.L   ~ @.@.@.@.@.@.i.i.i.i.i.i.i.i.i.& , @.@.@.@.@.!   L ,.,.,.,.,.;   l.l.l.l.l.l.l.l.l.l.l.",
"l.l.l.l.l.l.l.l.l.l.l.  5 ,.,.,.,.,.N   / @.@.@.@.@.@.i.i.i.i.i.i.i.i.i.& > @.@.@.@.@./   N ,.,.,.,.,.5   l.l.l.l.l.l.l.l.l.l.l.",
"l.l.l.l.l.l.l.l.l.l.l.  t ,.,.,.,.,.m   ) @.@.@.@.@.@.i.i.i.i.i.i.i.i.i.6 @ @.@.@.@.@.)   m ,.,.,.,.,.t   l.l.l.l.l.l.l.l.l.l.l.",
"l.l.l.l.l.l.l.l.l.l.l.  h ,.,.,.,.,.b   { @.@.@.@.@.4 V i.i.i.i.i.i.i.i.7 + @.@.@.@.@.}   b ,.,.,.,.,.u   l.l.l.l.l.l.l.l.l.l.l.",
"l.l.l.l.l.l.l.l.l.l.l.  u ,.,.,.,.,.b   { @.@.@.@.@.+ 7 i.i.i.i.i.i.i.i.7 + @.@.@.@.@.{   b ,.,.,.,.,.y   l.l.l.l.l.l.l.l.l.l.l.",
"l.l.l.l.l.l.l.l.l.l.l.  t ,.,.,.,.,.m   [ @.@.@.@.@.@ < i.i.i.i.i.i.i.i.< & @.@.@.@.@.)   M ,.,.,.,.,.t   l.l.l.l.l.l.l.l.l.l.l.",
"l.l.l.l.l.l.l.l.l.l.l.  5 ,.,.,.,.,.N   / @.@.@.@.@.> & i.i.i.i.i.i.i.i.& - @.@.@.@.@./   K ,.,.,.,.,.5   l.l.l.l.l.l.l.l.l.l.l.",
"l.l.l.l.l.l.l.l.l.l.l.  $ ,.,.,.,.,.P   ! @.@.@.@.@., % i.i.i.i.i.i.i.i.+ , @.@.@.@.@.Q   P ,.,.,.,.>.$   l.l.l.l.l.l.l.l.l.l.l.",
"l.l.l.l.l.l.l.l.l.l.l.    -.,.,.,.,.Y   J @.@.@.@.@., X i.i.i.i.i.i.i.i.X 2 @.@.@.@.@.J   Y ,.,.,.,.-.    l.l.l.l.l.l.l.l.l.l.l.",
"l.l.l.l.l.l.l.l.l.l.l.    R ,.,.,.,.$.  l @.@.@.@.@.4 . i.i.i.i.i.i.i.i.. 4 @.@.@.@.@.j   %.,.,.,.,.R     l.l.l.l.l.l.l.l.l.l.l.",
"l.l.l.l.l.l.l.l.l.l.l.l.  n ,.,.,.,.>.. 4 @.@.@.@.@.a   y.i.i.i.i.i.i.r.  a @.@.@.@.@.4 . ;.,.,.,.,.b   l.l.l.l.l.l.l.l.l.l.l.l.",
"l.l.l.l.l.l.l.l.l.l.l.l.  ; ,.,.,.,.,.; . @.@.@.@.@.j   0.i.i.i.i.i.i.0.  k @.@.@.@.@.. : ,.,.,.,.,.;   l.l.l.l.l.l.l.l.l.l.l.l.",
"l.l.l.l.l.l.l.l.l.l.l.l.    $.,.,.,.>.h    .@.@.@.@.x   7.i.i.i.i.i.i.7.  x @.@.@.@.|   u ,.,.,.,.$.    l.l.l.l.l.l.l.l.l.l.l.l.",
"l.l.l.l.l.l.l.l.l.l.l.l.l.  v ,.,.,.,.P   W @.@.@.@.E   3.i.i.i.i.i.i.3.  E @.@.@.@.W   P ,.,.,.,.v   l.l.l.l.l.l.l.l.l.l.l.l.l.",
"l.l.l.l.l.l.l.l.l.l.l.l.l.  . -.,.,.,.*.  a @.@.@.@.!   ` i.i.i.i.i.i.`   ! @.@.@.@.a   *.,.,.,.-..   l.l.l.l.l.l.l.l.l.l.l.l.l.",
"l.l.l.l.l.l.l.l.l.l.l.l.l.l.  b ,.,.,.,.1 . O.@.@.@.{   C i.i.i.i.i.i.C   } @.@.+.O.. 1 ,.,.,.,.b   l.l.l.l.l.l.l.l.l.l.l.l.l.l.",
"l.l.l.l.l.l.l.l.l.l.l.l.l.l.    $.,.,.,.M   ! @.@.@.o.  B i.i.i.i.i.i.g   o.@.@.@.Q   N ,.,.,.$.    l.l.l.l.l.l.l.l.l.l.l.l.l.l.",
"l.l.l.l.l.l.l.l.l.l.l.l.l.l.l.  5 >.,.,.*.  4 @.@.@.@.+ < i.i.i.i.i.i.< @ @.@.@.+.4 . *.,.,.,.5   l.l.l.l.l.l.l.l.l.l.l.l.l.l.l.",
"l.l.l.l.l.l.l.l.l.l.l.l.l.l.l.    n ,.,.,.t   { @.@.@.4   u.i.i.i.i.y.  4 @.@.@.{   t ,.,.,.b     l.l.l.l.l.l.l.l.l.l.l.l.l.l.l.",
"l.l.l.l.l.l.l.l.l.l.l.l.l.l.l.l.    I ,.,.R   p @.@.@.l   8.i.i.i.i.8.  l @.@.@.i   ] ,.,.I .   l.l.l.l.l.l.l.l.l.l.l.l.l.l.l.l.",
"l.l.l.l.l.l.l.l.l.l.l.l.l.l.l.l.l.    U ,.,.r   / @.@.~   _ i.i.i.i._   ~ +.@.~   t ,.,.U     l.l.l.l.l.l.l.l.l.l.l.l.l.l.l.l.l.",
"l.l.l.l.l.l.l.l.l.l.l.l.l.l.l.l.l.l.  . P ,.%.. @ X.@.X.  f i.i.i.i.f   X.@.X.@ . %.,.L     l.l.l.l.l.l.l.l.l.l.l.l.l.l.l.l.l.l.",
"l.l.l.l.l.l.l.l.l.l.l.l.l.l.l.l.l.l.l.    u ;.K   w +.@., . y.i.i.u.. , @.+.i   K :.h     l.l.l.l.l.l.l.l.l.l.l.l.l.l.l.l.l.l.l.",
"l.l.l.l.l.l.l.l.l.l.l.l.l.l.l.l.l.l.l.l.                                                l.l.l.l.l.l.l.l.l.l.l.l.l.l.l.l.l.l.l.l.",
"l.l.l.l.l.l.l.l.l.l.l.l.l.l.l.l.l.l.l.l.l.    q *             9 9             * q     l.l.l.l.l.l.l.l.l.l.l.l.l.l.l.l.l.l.l.l.l.",
"l.l.l.l.l.l.l.l.l.l.l.l.l.l.l.l.l.l.l.l.l.    s.G   l.l.l.    d.d.    l.l.l.  G s.  l.l.l.l.l.l.l.l.l.l.l.l.l.l.l.l.l.l.l.l.l.l.",
"l.l.l.l.l.l.l.l.l.l.l.l.l.l.l.l.l.l.l.l.l.l.  G a.  l.l.l.    d.d.    l.l.l.  a.H   l.l.l.l.l.l.l.l.l.l.l.l.l.l.l.l.l.l.l.l.l.l.",
"l.l.l.l.l.l.l.l.l.l.l.l.l.l.l.l.l.l.l.l.l.l.  S j.    l.l.    d.d.    l.l.    j.f.= l.l.l.l.l.l.l.l.l.l.l.l.l.l.l.l.l.l.l.l.l.l.",
"l.l.l.l.l.l.l.l.l.l.l.l.l.l.l.l.l.l.l.l.l.l.  * k.=   l.l.    d.d.    l.l.  = k.k.l.l.l.l.l.l.l.l.l.l.l.l.l.l.l.l.l.l.l.l.l.l.l.",
"l.l.l.l.l.l.l.l.l.l.l.l.l.l.l.l.l.l.l.l.l.l.    h.D   l.l.    d.d.    l.l.  D k.g.l.l.l.l.l.l.l.l.l.l.l.l.l.l.l.l.l.l.l.l.l.l.l.",
"l.l.l.l.l.l.l.l.l.l.l.l.l.l.l.l.l.l.l.l.l.l.l.  p.H   l.l.    d.d.    l.l.  H s.  l.l.l.l.l.l.l.l.l.l.l.l.l.l.l.l.l.l.l.l.l.l.l.",
"l.l.l.l.l.l.l.l.l.l.l.l.l.l.l.l.l.l.l.l.l.l.l.  F d.    l.    d.d.    l.    d.F   l.l.l.l.l.l.l.l.l.l.l.l.l.l.l.l.l.l.l.l.l.l.l.",
"l.l.l.l.l.l.l.l.l.l.l.l.l.l.l.l.l.l.l.l.l.l.l.  . o           o o       .   o .   l.l.l.l.l.l.l.l.l.l.l.l.l.l.l.l.l.l.l.l.l.l.l.",
"l.l.l.l.l.l.l.l.l.l.l.l.l.l.l.l.l.l.l.l.l.l.l.    o o + o o o o o o o o O O o     l.l.l.l.l.l.l.l.l.l.l.l.l.l.l.l.l.l.l.l.l.l.l.",
"l.l.l.l.l.l.l.l.l.l.l.l.l.l.l.l.l.l.l.l.l.l.l.  o b D A A A A A A A D b A A D o   l.l.l.l.l.l.l.l.l.l.l.l.l.l.l.l.l.l.l.l.l.l.l.",
"l.l.l.l.l.l.l.l.l.l.l.l.l.l.l.l.l.l.l.l.l.l.l.  * D D A A A A A A A D D A A A #   l.l.l.l.l.l.l.l.l.l.l.l.l.l.l.l.l.l.l.l.l.l.l.",
"l.l.l.l.l.l.l.l.l.l.l.l.l.l.l.l.l.l.l.l.l.l.l.  # A A A A A A A A A A A A A A #   l.l.l.l.l.l.l.l.l.l.l.l.l.l.l.l.l.l.l.l.l.l.l.",
"l.l.l.l.l.l.l.l.l.l.l.l.l.l.l.l.l.l.l.l.l.l.l.  # A A A A A A A A A A A A A A #   l.l.l.l.l.l.l.l.l.l.l.l.l.l.l.l.l.l.l.l.l.l.l.",
"l.l.l.l.l.l.l.l.l.l.l.l.l.l.l.l.l.l.l.l.l.l.l.  # A A A A A A A A A A A A A A #   l.l.l.l.l.l.l.l.l.l.l.l.l.l.l.l.l.l.l.l.l.l.l.",
"l.l.l.l.l.l.l.l.l.l.l.l.l.l.l.l.l.l.l.l.l.l.l.  # A A A A A A A A A A A A A A #   l.l.l.l.l.l.l.l.l.l.l.l.l.l.l.l.l.l.l.l.l.l.l.",
"l.l.l.l.l.l.l.l.l.l.l.l.l.l.l.l.l.l.l.l.l.l.l.  o A A A A A A A A A A A A A A o   l.l.l.l.l.l.l.l.l.l.l.l.l.l.l.l.l.l.l.l.l.l.l.",
"l.l.l.l.l.l.l.l.l.l.l.l.l.l.l.l.l.l.l.l.l.l.l.    0 A A A A A A A A A A A A 0     l.l.l.l.l.l.l.l.l.l.l.l.l.l.l.l.l.l.l.l.l.l.l.",
"l.l.l.l.l.l.l.l.l.l.l.l.l.l.l.l.l.l.l.l.l.l.l.l.    o * * * * * * * * * * o     l.l.l.l.l.l.l.l.l.l.l.l.l.l.l.l.l.l.l.l.l.l.l.l.",
"l.l.l.l.l.l.l.l.l.l.l.l.l.l.l.l.l.l.l.l.l.l.l.l.l.                            l.l.l.l.l.l.l.l.l.l.l.l.l.l.l.l.l.l.l.l.l.l.l.l.l."
};
