/* XPM */
static char *cfd123ee610147bcee4e750adeeb0bd7lu9g8iaxST4xqrWj[] = {
/* columns rows colors chars-per-pixel */
"64 64 174 2 ",
"   c None",
".  c #130D2F",
"X  c #110E2F",
"o  c #110F2F",
"O  c #120E2F",
"+  c #130E2F",
"@  c #120F2F",
"#  c #130F2F",
"$  c #140F2F",
"%  c #110D30",
"&  c #120D30",
"*  c #130D31",
"=  c #110E30",
"-  c #110F30",
";  c #120E30",
":  c #130E30",
">  c #120F30",
",  c #130F30",
"<  c #120E31",
"1  c #130E31",
"2  c #120F31",
"3  c #140F30",
"4  c #131030",
"5  c #141030",
"6  c #141130",
"7  c #151230",
"8  c #151231",
"9  c #161331",
"0  c #151430",
"q  c #161530",
"w  c #171531",
"e  c #171631",
"r  c #181631",
"t  c #191831",
"y  c #1A1931",
"u  c #1A1A32",
"i  c #1B1A32",
"p  c #1B1B32",
"a  c #1C1C31",
"s  c #1C1C32",
"d  c #1D1D32",
"f  c #1D1F32",
"g  c #202233",
"h  c #222533",
"j  c #232533",
"k  c #262B34",
"l  c #262C34",
"z  c #272C34",
"x  c #282D34",
"c  c #282E34",
"v  c #282F34",
"b  c #2A3035",
"n  c #2A3135",
"m  c #2B3135",
"M  c #2D3335",
"N  c #2D3635",
"B  c #2E3636",
"V  c #2E3736",
"C  c #303936",
"Z  c #303A36",
"A  c #323C37",
"S  c #333E36",
"D  c #343F37",
"F  c #354137",
"G  c #374337",
"H  c #384537",
"J  c #394637",
"K  c #384438",
"L  c #3A4738",
"P  c #3B4838",
"I  c #3B4939",
"U  c #3B4A38",
"Y  c #3C4B38",
"T  c #3C4C39",
"R  c #3D4C39",
"E  c #3E4C39",
"W  c #3F4F39",
"Q  c #404F39",
"!  c #415139",
"~  c #425239",
"^  c #41503A",
"/  c #44573A",
"(  c #45583A",
")  c #46583B",
"_  c #475A3A",
"`  c #485B3B",
"'  c #4A5D3B",
"]  c #4A5E3B",
"[  c #4C613B",
"{  c #4C623B",
"}  c #4D633C",
"|  c #4E643C",
" . c #4E653C",
".. c #4F663C",
"X. c #536B3D",
"o. c #536C3D",
"O. c #546D3D",
"+. c #556E3D",
"@. c #58723E",
"#. c #59733E",
"$. c #59743E",
"%. c #5A753E",
"&. c #5A763E",
"*. c #5B763E",
"=. c #5A763F",
"-. c #5C783F",
";. c #5F7C3F",
":. c #617E3F",
">. c #607D40",
",. c #628140",
"<. c #628240",
"1. c #638340",
"2. c #648440",
"3. c #688941",
"4. c #688B41",
"5. c #698B41",
"6. c #698A42",
"7. c #6B8F41",
"8. c #6C9042",
"9. c #6F9342",
"0. c #6E9243",
"q. c #709443",
"w. c #709642",
"e. c #719743",
"r. c #729843",
"t. c #759C43",
"y. c #739944",
"u. c #759C44",
"i. c #769D44",
"p. c #78A144",
"a. c #79A144",
"s. c #79A145",
"d. c #79A244",
"f. c #7AA344",
"g. c #7BA445",
"h. c #7CA545",
"j. c #7DA745",
"k. c #7CA646",
"l. c #7DA845",
"z. c #7EA945",
"x. c #7FAC46",
"c. c #80AB45",
"v. c #81AD46",
"b. c #81AE46",
"n. c #82AF46",
"m. c #83B046",
"M. c #84B147",
"N. c #85B247",
"B. c #87B547",
"V. c #87B747",
"C. c #88B847",
"Z. c #89B948",
"A. c #89BA48",
"S. c #8ABA48",
"D. c #8CBC48",
"F. c #8DBE49",
"G. c #8FC049",
"H. c #8FC249",
"J. c #90C249",
"K. c #90C349",
"L. c #91C449",
"P. c #94C849",
"I. c #94C94A",
"U. c #95CA4A",
"Y. c #95CB4A",
"T. c #96CA4B",
"R. c #96CC4A",
"E. c #97CD4B",
"W. c #99CF4A",
"Q. c #98CE4B",
"!. c #98CF4B",
"~. c #99D04B",
"^. c #9AD14B",
"/. c #9AD24B",
/* pixels */
"                                                                                                                                ",
"                                                                                                                                ",
"                                                                                                                                ",
"                                                                                                                                ",
"                                                                                                                                ",
"                                                                                                                                ",
"                                                                                                                                ",
"                                                                                                                                ",
"                                                                                                                                ",
"                                                                                                                                ",
"                                                                                                                                ",
"                                                                                                                                ",
"                                                                                                                                ",
"                                                                                                                                ",
"                                                                                                                                ",
"                                                                                                                                ",
"                                                                                                                                ",
"                                                              $ ;                                                               ",
"                                                              ; ;                                                               ",
"                                                            $ ; ; @                                                             ",
"                                                            3 i i ;                       ;                                     ",
"                                  ; ; ;                     ; L E ;                     ; ; ;                                   ",
"                                    ; ; ;                   ; *.>.;                   @ ; ;                                     ",
"                                    @ ; ;                 @ ; h.h.; @                 ; ; @                                     ",
"                  ; ;               @ ; 9 ;               @ 9 R.T.9 @               ; 9 ; ;               ; @                   ",
"                  @ ; ;             @ ; ] ; ;             ; v ^.^.M 3             ; ; ' ; ;             @ ; ;                   ",
"                    ; ; ; ;           ; 5.F ;             ; ! ^.^.! @             ; G 6.;           ; ; ; ;                     ",
"                    @ i C ;           ; O.M.4 ;           ; @.^.^.O.;           ; 9 M.X.;         ; ; N i 3                     ",
"                    ; ; r.u.          ; Q ^.) ;           ; a.^.^.6.;           ; ) ^.Y ;       ; ; I 9.; ;                     ",
"                      ; ! ^.^.        ; n ^.C.9 ;         R.^.^.^.l.; ;       ; 9 S.^.v 4     ; ; F E.! ;                       ",
"                      ; 9 J.^.E ;     ; 9 !.^.Q ;         a.^.^.^.L.; ;       ; ! ^.R.9 ;     ; l J.H.9 ;                       ",
"                        ; 2.^.b.9 @   ; ; B.^.h.; ;     ; h ^.^.^.^.a ;     ; ; h.^.D.; @   ; 0 M.^.,.;                         ",
"                        ; H ^.^.*.; ; @ ; a.^.^.v ;     $ C ^.^.^.^.N 4     ; n ^.^.^.%.  ; ; -.^.^.F ;                         ",
"                        ; 4 H.^.^.n ; ; ; 7.^.^.%.;       b.^.^.^.^.I ;     ; %.^.^.^.^.  ; N ^.^.H.9 ;                         ",
"                          ; 2.^.^.a.; ; ; >.^.^.C.; ;     ^.^.^.^.^.) ;   ; ; S.^.^.^.  ; @ a.^.^.,.;                           ",
"                          ; L ^.^.^.E ; 3 O.^.^.^.l @   ; 3.^.^.^.^.O.4   @ k ^.^.^.^.  ; I ^.^.^.L ;                           ",
"                          ; r E.^.^.c.; ; ] !.^.^.[ ; @ ; ,.^.^.^.^.,.; ; ; } ^.^.^.^.s ; x.^.^.R.0 4                           ",
"                          ; ; h.^.^.^.L ; Y ^.^.^.r.; ; ; 7.^.^.^.^.9.; ; ; y.^.^.^.l.@ D ^.^.^.h.; ;                           ",
"                            ; =.^.^.^.9.; D ^.^.^.T.9 ; ; t.^.^.^.^.h.; ; 0 T.^.^.^.] 4 9.^.^.^.%.;                             ",
"                            ; L ^.^.^.E.g a R.^.^.^.S ; ; l.^.^.^.^.M.; ; S ^.^.^.T.i f E.^.^.^.F ;                             ",
"                            ; r ^.^.^.^.{ ; u.^.^.^...; ; B.^.^.^.^.D.; ; ..^.^.^.q.; ..^.^.^.^.0 @                             ",
"                            ; ; B.^.^.^.a.; ] ^.^.^.6.; ; H.^.^.^.^.P.; @ 6.^.^.^.` ; a.^.^.^.V.; ;                             ",
"                              ; r.^.^.^.^.a h ^.^.^.b.@ ; ^.^.^.^.^.^.4 3 M.^.^.^.g a ^.^.^.^.9.;                               ",
"                              ; :.^.^.^.^.I ; F.^.^.!.q r ^.^.^.^.^.^.i 0 !.^.^.C.; E ^.^.^.^.;.;                               ",
"                              ; O.^.^.^.^.%.; 9.^.^.^.M 0 !.^.^.^.^.^.0 N ^.^.^.0.; -.^.^.^.^.O.;                               ",
"                            ; ; S %.%.%.%./ ; L %.%.=.n ; @.%.%.%.%.O.; v %.%.%.H ; ) %.=.%.%.C ; ;                             ",
"    ; ; ; ; ; ; ; ; ; ; ; ; ; ; ; ; ; ; ; ; ; ; ; ; ; ; ; ; ; ; ; ; ; ; ; ; ; ; ; ; ; ; 4 ; ; ; ; ; ; ; ; ; ; ; ; ; ; ; ; ;     ",
"                                                                                                                                ",
"                                                                                                                                ",
"                                                                                                                                ",
"                                                                                                                                ",
"                                                                                                                                ",
"                                                                                                                                ",
"                                                                                                                                ",
"                                                                                                                                ",
"                                                                                                                                ",
"                                                                                                                                ",
"                                                                                                                                ",
"                                                                                                                                ",
"                                                                                                                                ",
"                                                                                                                                ",
"                                                                                                                                ",
"                                                                                                                                ",
"                                                                                                                                "
};
