/* XPM */
static char *result[] = {
/* columns rows colors chars-per-pixel */
"64 64 160 2 ",
"   c #000000",
".  c #070B01",
"X  c #090D02",
"o  c #070708",
"O  c #070809",
"+  c #0A0B0C",
"@  c #0C1103",
"#  c #151E05",
"$  c #0C0E10",
"%  c #0E1112",
"&  c #121415",
"*  c #131718",
"=  c #161B1C",
"-  c #1B1C1D",
";  c #172106",
":  c #192405",
">  c #1A2508",
",  c #1F2C08",
"<  c #202E08",
"1  c #27380A",
"2  c #2B3E0B",
"3  c #243406",
"4  c #1C1E21",
"5  c #1B2124",
"6  c #1E2528",
"7  c #212224",
"8  c #272729",
"9  c #23292C",
"0  c #2A2B2E",
"q  c #252E31",
"w  c #292E30",
"e  c #273135",
"r  c #2B3135",
"t  c #2B3539",
"y  c #2F3A3F",
"u  c #333639",
"i  c #373B3E",
"p  c #2E430C",
"a  c #30450C",
"s  c #334A0D",
"d  c #3A540F",
"f  c #3D580B",
"g  c #3F5B10",
"h  c #425F0D",
"j  c #405C10",
"k  c #456311",
"l  c #4B6C13",
"z  c #4D7013",
"x  c #527715",
"c  c #567C16",
"v  c #323D43",
"b  c #3C3E41",
"n  c #354247",
"m  c #364449",
"M  c #3A464C",
"N  c #3D4C52",
"B  c #404245",
"V  c #46474A",
"C  c #434A4D",
"Z  c #404F56",
"A  c #4C4E53",
"S  c #465054",
"D  c #4F5155",
"F  c #45555C",
"G  c #52555A",
"H  c #515B5F",
"J  c #595A5E",
"K  c #4C5E66",
"L  c #515E62",
"P  c #5C5E63",
"I  c #556064",
"U  c #52646C",
"Y  c #5D696E",
"T  c #5B6D74",
"R  c #606266",
"E  c #686A6E",
"W  c #63666D",
"Q  c #646C72",
"!  c #6A6D74",
"~  c #627075",
"^  c #6E7177",
"/  c #64747B",
"(  c #6F727A",
")  c #66787F",
"_  c #6C7A7F",
"`  c #707277",
"'  c #787A7F",
"]  c #5D850F",
"[  c #5B8417",
"{  c #5F8A18",
"}  c #628E19",
"|  c #649119",
" . c #68971A",
".. c #6C9B1B",
"X. c #6C9B12",
"o. c #6FA11C",
"O. c #72A41D",
"+. c #76AB1C",
"@. c #7EB515",
"#. c #7BB21F",
"$. c #7FB81B",
"%. c #80B817",
"&. c #83BC1A",
"*. c #83BD21",
"=. c #86C11E",
"-. c #88C41F",
";. c #86C222",
":. c #89C621",
">. c #8BC923",
",. c #677980",
"<. c #697B82",
"1. c #737A81",
"2. c #797C85",
"3. c #728186",
"4. c #76868B",
"5. c #77898F",
"6. c #78898F",
"7. c #7E828A",
"8. c #7C8C92",
"9. c #7F9096",
"0. c #818387",
"q. c #81858E",
"w. c #868A93",
"e. c #898B90",
"r. c #809197",
"t. c #829399",
"y. c #8E929C",
"u. c #91949B",
"i. c #9397A1",
"p. c #979BA6",
"a. c #989DA7",
"s. c #9A9FAA",
"d. c #9DA2AD",
"f. c #A6ACB6",
"g. c #ACAFB5",
"h. c #ACB1BD",
"j. c #B1B7C3",
"k. c #B5BBC7",
"l. c #B8BECB",
"z. c #BBC1CD",
"x. c #BFC5D2",
"c. c #C0C6D3",
"v. c #C5C9D2",
"b. c #C7CDD9",
"n. c #CACDD5",
"m. c #CCD1DC",
"M. c #D2D5DD",
"N. c #CFD5E0",
"B. c #D1D6E2",
"V. c #D5DAE4",
"C. c #DBDFE7",
"Z. c #DADFE9",
"A. c #DDE2ED",
"S. c #E1E5ED",
"D. c #E1E6F0",
"F. c #E5EAF4",
"G. c #E9EDF6",
"H. c #EDF1FA",
"J. c #F1F5FE",
"K. c None",
/* pixels */
"K.K.K.K.K.K.K.K.K.K.K.K.K.K.K.K.K.K.K.K.K.K.K.K.K.    K.K.K.K.K.K.K.K.K.K.K.K.K.K.K.K.K.K.K.K.K.K.K.K.K.K.K.K.K.K.K.K.K.K.K.K.K.",
"K.K.K.K.K.K.K.K.K.K.K.K.K.K.K.K.K.K.K.K.K.K.K.K.K.    K.K.K.K.K.K.K.K.K.K.K.K.K.K.K.K.K.K.K.K.K.K.K.K.K.K.K.K.K.K.K.K.K.K.K.K.K.",
"K.K.K.K.K.K.K.K.K.K.K.K.K.K.K.K.K.K.K.K.K.K.K.K.        K.K.K.K.K.K.K.K.K.K.K.K.K.K.K.K.K.K.K.K.K.K.K.K.K.K.K.K.K.K.K.K.K.K.K.K.",
"K.K.K.K.K.K.K.K.K.K.K.K.K.K.K.K.K.K.K.K.K.K.K.K.  & &   K.K.K.K.K.K.K.K.K.K.K.K.K.K.K.K.K.K.K.K.K.K.K.K.K.K.K.K.K.K.K.K.K.K.K.K.",
"K.K.K.K.K.K.K.K.K.K.K.K.K.K.K.K.K.K.K.K.K.K.K.    Q `     K.K.K.K.K.K.K.K.K.K.K.K.K.K.K.K.K.K.K.K.K.K.K.K.K.K.K.K.K.K.K.K.K.K.K.",
"K.K.K.K.K.K.K.K.K.K.K.K.K.K.K.K.K.K.K.K.K.K.K.  o j.m.o   K.K.K.K.K.K.K.K.K.K.K.K.K.K.K.K.K.K.K.K.K.K.K.K.K.K.K.K.K.K.K.K.K.K.K.",
"K.K.K.K.K.K.K.K.K.K.K.K.K.K.K.K.K.K.K.K.K.K.K.  A c.A.J   K.K.K.K.K.K.K.K.K.K.K.K.K.K.K.K.K.K.K.K.K.K.K.K.K.K.K.K.K.K.K.K.K.K.K.",
"K.K.K.K.K.K.K.K.K.K.K.K.K.K.K.K.K.K.K.K.K.K.    d.c.C.v.    K.K.K.K.K.K.K.K.K.K.K.K.K.K.K.K.K.K.K.K.K.K.K.K.K.K.K.K.K.K.K.K.K.K.",
"K.K.K.K.K.K.K.K.K.K.K.K.K.K.K.K.K.K.K.K.K.K.  u x.x.V.J.B   K.K.K.K.K.K.K.K.K.K.K.K.K.K.K.K.K.K.K.K.K.K.K.K.K.K.K.K.K.K.K.K.K.K.",
"K.K.K.K.K.K.K.K.K.K.K.K.K.K.K.K.K.K.K.K.K.    w.x.c.V.J.g.    K.K.K.K.K.K.K.K.K.K.K.K.K.K.K.K.K.K.K.K.K.K.K.K.K.K.K.K.K.K.K.K.K.",
"K.K.K.K.K.K.K.K.K.K.K.K.K.K.K.K.K.K.K.K.K.  - x.x.x.m.J.J.u & K.K.K.K.K.K.K.K.K.K.K.K.K.K.K.K.K.K.K.K.K.K.K.K.K.K.K.K.K.K.K.K.K.",
"K.K.K.K.K.K.K.K.K.K.K.K.K.K.K.K.K.K.K.K.    ^ x.x.x.m.J.J.H.V.K.K.K.K.K.K.K.K.K.K.K.K.K.K.K.K.K.K.K.K.K.K.K.K.K.K.K.K.K.K.K.K.K.",
"K.K.K.K.K.K.K.K.K.K.K.K.K.K.K.K.K.K.K.K.  + k.x.x.x.b.J.J.J.J.K.K.K.K.K.K.K.K.K.K.K.K.K.K.K.K.K.K.K.K.K.K.K.K.K.K.K.K.K.K.K.K.K.",
"K.K.K.K.K.K.K.K.K.K.K.K.K.K.K.K.K.K.K.    G x.x.x.x.c.J.J.J.J.g.K.K.K.K.K.K.K.K.K.K.K.K.K.K.K.K.K.K.K.K.K.K.K.K.K.K.K.K.K.K.K.K.",
"K.K.K.K.K.K.K.K.K.K.K.K.K.K.K.K.K.K.K.    f.x.x.x.x.c.J.J.J.J.4   K.K.K.K.K.K.K.K.K.K.K.K.K.K.K.K.K.K.K.K.K.K.K.K.K.K.K.K.K.K.K.",
"K.K.K.K.K.K.K.K.K.K.K.K.K.K.K.K.K.K.K.  i x.x.c.x.x.x.H.J.J.J.P   K.K.K.K.K.K.K.K.K.K.K.K.K.K.K.K.K.K.K.K.K.K.K.K.K.K.K.K.K.K.K.",
"K.K.K.K.K.K.K.K.K.K.K.K.K.K.K.K.K.K.    y.x.x.x.x.x.x.G.J.J.J.v.    K.K.K.K.K.K.K.K.K.K.K.K.K.K.K.K.K.K.K.K.K.K.K.K.K.K.K.K.K.K.",
"K.K.K.K.K.K.K.K.K.K.K.K.K.K.K.K.K.K.  7 x.x.x.x.x.x.x.F.J.J.J.J.B   K.K.K.K.K.K.K.K.K.K.K.K.K.K.K.K.K.K.K.K.K.K.K.K.K.K.K.K.K.K.",
"K.K.K.K.K.K.K.K.K.K.K.K.K.K.K.K.K.    1.x.x.x.x.x.x.x.D.J.J.J.J.g.    K.K.K.K.K.K.K.K.K.K.K.K.K.K.K.K.K.K.K.K.K.K.K.K.K.K.K.K.K.",
"K.K.K.K.K.K.K.K.K.K.K.K.K.K.K.K.K.  + z.x.x.x.x.x.x.x.V.D.F.F.J.J.8   K.K.K.K.K.K.K.K.K.K.K.K.K.K.K.K.K.K.K.K.K.K.K.K.K.K.K.K.K.",
"K.K.K.K.K.K.K.K.K.K.K.K.K.K.K.K.    P x.x.x.x.x.x.x.x.x.x.x.B.J.J.u.    K.K.K.K.K.K.K.K.    K.K.K.K.K.K.K.K.K.K.K.K.K.K.K.K.K.K.",
"K.K.K.K.K.K.K.K.K.K.K.K.K.K.K.K.    i.x.x.x.x.x.x.x.x.x.x.x.N.J.J.G.&   K.K.K.K.K.K.K.K.    K.K.K.K.K.K.K.K.K.K.K.K.K.K.K.K.K.K.",
"K.K.K.K.K.K.K.K.K.K.K.K.K.K.K.K.    2.x.x.x.x.G & q.x.x.x.x.B.J.J.J.B     K.K.K.K.K.K.        K.K.K.K.K.K.K.K.K.K.K.K.K.K.K.K.K.",
"K.K.K.K.K.K.K.K.K.K.K.K.K.K.K.      P x.x.x.(       A l.x.x.B.H.H.J       K.K.K.K.K.K.  + V   K.K.K.K.K.K.K.K.K.K.K.K.K.K.K.K.K.",
"K.K.K.K.K.K.K.K.K.K.K.K.K.K.K.  o   B x.x.i.    t +   4 s.x.B.H.D   % 9   K.K.K.K.K.    G n.    K.K.K.K.K.K.K.K.K.K.K.K.K.K.K.K.",
"K.K.K.K.K.K.K.K.K.K.K.K.K.K.    e   7 x.h.&   y K F =   o ^ m.V   & 1._     K.K.K.K.    f.G.R     K.K.K.K.K.K.K.K.K.K.K.K.K.K.K.",
"K.K.K.K.K.K.K.K.K.K.K.K.K.K.  + K   O z.0   6 K K K K t     %   & 4.t.t.9   K.K.K.K.  B x.G.V.o   K.K.K.K.K.K.K.K.K.K.K.K.K.K.K.",
"K.K.K.K.K.K.K.K.K.K.K.K.K.    e K %   b   % K K K K K K N +   = 4.t.t.t.Y     K.K.    p.x.G.J.E     K.K.K.K.K.K.K.K.K.K.K.K.K.K.",
"K.K.K.K.K.K.K.K.K.K.K.K.K.  o F K 5     O F K K K K K K K K L 8.t.t.t.t.t.*   K.K.  r x.c.G.J.C.+   K.K.K.K.K.K.K.K.K.K.K.K.K.K.",
"K.K.K.K.K.K.K.K.K.K.K.K.K.  6 K K q     M K K K K K K K K K ) t.t.t.t.t.t.H         w.c.x.G.J.J.`     K.K.K.K.K.K.K.K.K.K.K.K.K.",
"K.K.K.K.K.K.K.K.K.K.K.K.    N K K N   t K K K K K K K K K K ) t.t.t.t.t.t.r.+     4 x.x.x.F.J.J.S.+   K.K.K.K.K.K.K.K.K.K.K.K.K.",
"K.K.K.K.K.K.K.K.K.K.K.K.  * K K K K K K K K K K K K K K K K ,.t.t.6.6.t.t.t.C     ' x.x.x.G.J.J.J.'     K.K.K.K.K.K.K.K.K.K.K.K.",
"K.K.K.K.K.K.K.K.K.K.K.    n K K K K K K K K K K K K K K K K <.9.) K / t.t.t./   & l.x.x.x.F.J.J.J.F.&   K.K.K.K.K.K.K.K.K.K.K.K.",
"K.K.K.K.K.K.K.K.K.K.K.  $ K K K K K K K K K K K K K K K K K T U K K U t.t.t.i   W x.x.x.x.F.J.J.J.J.0.    K.K.K.K.K.K.K.K.K.K.K.",
"K.K.K.K.K.K.K.K.K.K.    t K K K K K K K K K K K K K K K K K K K K K K 4.t.4.  + j.x.x.x.x.F.J.J.J.J.F.&   K.K.K.K.K.K.K.K.K.K.K.",
"K.K.K.K.K.K.K.K.K.K.    K K K K K K K K K K K K K K K K K K K K K K K ) t.M   G x.x.x.x.x.F.J.J.J.J.J.e.    K.K.K.K.K.K.K.K.K.K.",
"K.K.K.K.K.K.K.K.K.    9 K K K K K K K K K K K K K K K K K K K K K K K U 8.+   f.x.x.x.x.x.F.J.H.J.J.J.H.=   K.K.K.K.K.K.K.K.K.K.",
"K.K.K.K.K.K.K.K.K.    F K K K K K K U K K K K K K K K K K K K K K K K K S   B c.x.x.x.x.x.B.V.V.F.J.J.J.u.    K.K.K.K.K.K.K.K.K.",
"K.K.K.K.K.K.K.K.K.  = K K K K K K K K K K K K K K K K K K K K K K K K K %   s.c.x.x.z.x.x.x.x.x.M.J.J.J.H.7   K.K.K.K.K.K.K.K.K.",
"K.K.K.K.K.K.K.K.    M K K K K K K K K K K K K K K K K K K K K K K K K v   r x.x.d.D O + P j.x.x.b.J.M.V V P     K.K.K.K.K.K.K.K.",
"K.K.K.K.K.K.K.K.  % K K K K K K K K K K K K K K K K K K K K K K K K K &   7.1.0           o G h.c.S.8           K.K.K.K.K.K.K.K.",
"K.K.K.K.K.K.K.    v K K K K K K K K K K K K K K K K K K K K K K K K M     +     + t K F q     o D b   8 L =       K.K.K.K.K.K.K.",
"K.K.K.K.K.K.K.  O K K K K K K K K K K K K K K K K K K K K K K K K K 4       5 M K K K K K F 9 o     = 6.t.t.Y &   K.K.K.K.K.K.K.",
"K.K.K.K.K.K.    q K K K K K K K K K K K K K K K K K K K K K K K K N   o t F K K K K K K K K K F q r 3.t.t.t.t.Y     K.K.K.K.K.K.",
"K.K.K.K.K.K.    F K K K K K K U K K K K K K K K K K K K K K K K K 6   q K K K K K K K K K K K K K ) t.t.t.t.t.t.5   K.K.K.K.K.K.",
"K.K.K.K.K.K.  5 K K K K K K K K K K K K K K K K K K K K K K K K K     K K K K K K K K K K K K K K T t.t.t.t.t.t.Q     K.K.K.K.K.",
"K.K.K.K.K.    N K K K K K K K K K K K K K K K K K K K K K K K K q   9 K K K K K K K n q q t m K K K t.t.t.t.t.t.t.9   K.K.K.K.K.",
"K.K.K.K.K.  & K K K K K K K K K K K K K K K K K K K K K K K K K     F K K K K N %             O e K w.t.t.t.t.t.r./     K.K.K.K.",
"K.K.K.K.    v K K K K K K K K K K K K K K K K K K K K K K K K t   5 K K K K q     ; s x c k 2     + ~ t.t.t.t.t.t.t.r   K.K.K.K.",
"K.K.K.K.  + K K K K K K K K K K K K K K K K K K K K K K K K K *   N K K K %   X [ >.>.>.>.>.>.+.a     Y t.t.t.t.t.t._     K.K.K.",
"K.K.K.    e K K K K K K K K K K K K U K K K K K K K K K K K K n y K K K 9   , #.>.>.>.=.=.:.:.>.>.k   $ 4.t.8.I M u C *   K.K.K.",
"K.K.K.    e 5 $ o % 6 m K K K K K K K K K K K K K K K K K K K K K K K m   . #.>.&.%.@.@.@.@.@.&.>.>.g   0 C O               K.K.",
"K.K.K.          .       * N K K K K K K K K K K K K K K K K K K K K K =   x :.%.@.@.@.@.@.@.@.@.@.&.&.@       a l | l ,       K.",
"K.K.      s } &.:.#.[ ;   O N K K K K K K K K K K K K K K K K K K K K   X =.@.@.@.@.@.@.@.@.@.@.@.@.=.z   > O.>.>.>.>.>.l     K.",
"K.K.  X { >.>.>.>.>.>.>.k     F K K K K K K K K K K F t * * K K 6 5 9   1 &.@.@.@.@.@.@.@.@.@.@.@.@.@.=.o.:.>.:.-.=.-.>.>.p     ",
"K.    { >.:.=.&.&.&.=.>.>.d   5 K K K K K K K K K v o     > ;.;.@       h @.@.@.@.@.@.@.@.@.@.@.@.@.@.@.>.:.&.@.@.@.@.@.=.O.    ",
"K.  a >.&.@.@.@.@.@.@.@.=.:.@   6 = = q n K K K 6     d ..>.>.>.;.[ <   f @.@.@.@.@.@.@.@.@.@.@.@.@.@.@.&.@.@.@.@.@.@.@.@.&.    ",
"    } %.@.@.@.@.@.@.@.@.@.&.k             % N v   @  .>.>.>.>.>.>.:.|   3 @.@.@.@.@.@.@.@.@.@.@.@.@.@.@.@.@.@.@.@.@.@.@.@.@.@   ",
"    +.@.@.@.@.@.@.@.@.@.@.@.$.j l ....l ,         ..>.-.&.&.&.%.&.=.*.  X @.@.@.@.@.@.@.@.@.@.@.@.@.@.@.@.@.@.@.@.@.@.@.@.@.@   ",
"  . @.@.@.@.@.@.@.@.@.@.@.@.@.>.>.>.>.>.>.d     2 >.&.@.@.@.@.@.@.@.@.:   @.@.@.@.@.@.@.@.@.@.@.@.@.@.@.@.@.@.@.@.@.@.@.@.@.@   ",
"  X @.@.@.@.@.@.@.@.@.@.@.@.@.=.-.&.&.:.>.>.s   [ %.@.@.@.@.@.@.@.@.@.X.] @.@.@.@.@.@.@.@.@.@.@.@.@.@.@.@.@.@.@.@.@.@.@.@.@.@   ",
"  @ @.@.@.@.@.@.@.@.@.@.@.@.@.@.@.@.%.@.@.&.>.+.%.%.@.@.@.@.@.@.@.@.@.@.@.@.@.@.@.@.@.@.@.@.@.@.@.@.@.@.@.@.@.@.@.@.@.@.@.@.@   ",
"    . . . . . . . . . . . . . . . . . . . . . X . . . . . . . . . . . . . . . . . . . . . . . . . . . . . . . . . . . . . .     ",
"                                                                                                                                "
};
