/* XPM */
static char *cefb4f2219db455597302103e4faab96lc4jgrf3tNGYE2wc[] = {
/* columns rows colors chars-per-pixel */
"64 64 164 2 ",
"   c None",
".  c #000000",
"X  c #0A0502",
"o  c #0E0802",
"O  c #0C0B0B",
"+  c #100605",
"@  c #150C03",
"#  c #190E03",
"$  c #100E0C",
"%  c #1B0908",
"&  c #1D1104",
"*  c #13100F",
"=  c #151515",
"-  c #181412",
";  c #1E1B19",
":  c #260D0B",
">  c #290E0C",
",  c #241505",
"<  c #2C1905",
"1  c #291705",
"2  c #321D06",
"3  c #211D19",
"4  c #371310",
"5  c #391411",
"6  c #372007",
"7  c #3C2207",
"8  c #3E2408",
"9  c #26211E",
"0  c #29231F",
"q  c #242323",
"w  c #292727",
"e  c #292827",
"r  c #2C2B2A",
"t  c #302925",
"y  c #362E29",
"u  c #34302D",
"i  c #3B332E",
"p  c #373433",
"a  c #3F3B39",
"s  c #3A3735",
"d  c #461814",
"f  c #4F1B17",
"g  c #571F1A",
"h  c #432708",
"j  c #472909",
"k  c #4B2B09",
"l  c #502E0A",
"z  c #56310B",
"x  c #5B340B",
"c  c #5D211B",
"v  c #60370C",
"b  c #653A0C",
"n  c #6D3F0D",
"m  c #64231D",
"M  c #453C36",
"N  c #4A3D33",
"B  c #413D3A",
"V  c #493F39",
"C  c #702721",
"Z  c #742923",
"A  c #74430E",
"S  c #7A460F",
"D  c #7E480F",
"F  c #4D423B",
"G  c #50453E",
"H  c #474442",
"J  c #4B4643",
"K  c #4E4945",
"L  c #484848",
"P  c #534740",
"I  c #534B46",
"U  c #554E4B",
"Y  c #5B4F47",
"T  c #5E5149",
"R  c #5F5853",
"E  c #63554D",
"W  c #715D4E",
"Q  c #645A54",
"!  c #6E5F55",
"~  c #655D58",
"^  c #6E645E",
"/  c #7B695F",
"(  c gray39",
")  c #6C6C6C",
"_  c #726761",
"`  c #756B64",
"'  c #7C6D63",
"]  c #7E7E7E",
"[  c #812E26",
"{  c #8E322A",
"}  c #93332B",
"|  c #9D372E",
" . c #A0382F",
".. c #AC3C33",
"X. c #834B10",
"o. c #884E11",
"O. c #8D5111",
"+. c #935512",
"@. c #985713",
"#. c #9F5B13",
"$. c #A45E14",
"%. c #AC6315",
"&. c #A66014",
"*. c #B26716",
"=. c #B56915",
"-. c #BB6C17",
";. c #BF4338",
":. c #BB4237",
">. c #C57218",
",. c #CD7619",
"<. c #C54539",
"1. c #C9463B",
"2. c #D44B3E",
"3. c #80746C",
"4. c #8E7A6E",
"5. c #967C68",
"6. c #877A71",
"7. c #8A7D74",
"8. c #DC4D41",
"9. c #E44F42",
"0. c #E65143",
"q. c #F55648",
"w. c #F15547",
"e. c #8F8076",
"r. c #908077",
"t. c #908178",
"y. c #9E897A",
"u. c #A28C7E",
"i. c #818181",
"p. c #9E8D82",
"a. c #9D9D9D",
"s. c #A18F84",
"d. c #A29084",
"f. c #AF9686",
"g. c #AD978A",
"h. c #AD998C",
"j. c #B49B8B",
"k. c #BB9F8B",
"l. c #B39E90",
"z. c #BCA392",
"x. c #B6A192",
"c. c #A5A5A5",
"v. c gray66",
"b. c #C2A897",
"n. c #C3AA9A",
"m. c #C8AD9B",
"M. c #C8B09E",
"N. c #CDB2A1",
"B. c #D3B7A4",
"V. c #D7B9A7",
"C. c #D9BCAA",
"Z. c #DEC1AE",
"A. c #E2C3AF",
"S. c #E6C6B2",
"D. c #EACAB5",
"F. c #EACAB5",
"G. c #EECDB9",
"H. c #EFCEB9",
"J. c #E9C7B2",
"K. c #F0CFBA",
"L. c #F0CFBA",
"P. c #F2D1BB",
"I. c #F5D3BD",
"U. c #F5D3BD",
/* pixels */
"                                                              . .                                                               ",
"                                                            . . . .                                                             ",
"                                                        . . . 1 1 . . .                                                         ",
"                                                      . . . k >.,.k . . .                                                       ",
"                                                    . . . D ,.,.,.,.S X . .                                                     ",
"                                                  . . @ $.,.,.,.,.,.,.$.# . .                                                   ",
"                                              . . . 2 -.,.,.,.,.,.,.,.,.-.2 . . .                                               ",
"                                            . . . x ,.,.,.,.,.,.,.,.b x %.,.v . . .                                             ",
"                                          . . X o.,.,.,.,.,.,.,.,.,.# . O.,.,.X.X . .                                           ",
"                                        . . & &.,.%.A o.,.,.,.,.,.,.x k %.,.,.,.&.& . .                                         ",
"                                    . . . h >.,.,.A . 2 ,.>.X.X.,.,.,.,.,.,.,.,.%.A o . . .                                     ",
"                                  . . . b ,.,.,.,.O.2 x ,.%.. . ,.,.,.,.#.+.=.,.b . 8 x . . .                                   ",
"                                . . @ +.,.%.$.-.,.,.,.,.,.=., , ,.,.,.,.2 . A ,.D , x ,.X.X . .                                 ",
"                              . . 1 *.,.,.8 . b ,.,.,.,.,.,.,.,.,.,.,.,.h & X.,.,.,.,.,.,.%., . .                               ",
"                          . . . l >.,.,.,.j o n ,.,.,.,.,.,.,.>.,.,.,.,.,.,.,.,.,.,.,.,.,.,.>.6 . . .                           ",
"                        . . . A ,.,.,.,.,.,.,.,.,.>.*.+.A k 1 X . & 8 v D $.>.,.,.,.,.,.,.,.,.,.n . . .                         ",
"                      . . # #.,.,.,.-.#.X.A x h , . . . . . . . . . . . . . . , h x A o.#.-.,.,.,.O.X . .                       ",
"                  . . . < +.S z < o . . . . . . . . X 9 N W 5.k.k.5.W N 9 X . . . . . . . . o < l S X.& . .                     ",
"                . . . . . . . . . . . . 9 M E / y.m.D.K.K.P.K.P.P.P.P.L.K.J.m.y./ E M 9 . . . . . . . . . . . .                 ",
"              . . . . . . . . O ( i.= . j.I.I.I.I.I.I.I.D.a ^ P.P.^ a D.I.I.I.I.I.I.I.j.. = i.( O . . . . . . . .               ",
"          . . . . . < z D X . ) v.v.= . j.I.I.I.I.I.I.I.` . ; I.I.; . ` I.I.I.I.I.I.I.j.. ; v.v.) . X D z < X . . . .           ",
"      . . . . 1 v @.$.$.O.. . a.v.v.; . j.I.n.H B B B B O . _ I.I.` . O B B B B H n.I.j.. = v.v.c.X . O.$.$.@.v 1 . . . .       ",
"    . . . 6 X.$.$.$.$.$.O.. X v.v.v.= . j.I.e . . . . . . = D.I.I.F.= . . . . . . w I.j.. = v.v.c.. . O.$.$.$.$.$.X.2 . . .     ",
"  . . @ D $.$.$.$.$.$.$.$.. . i.v.v.= . j.d.. . ^ ^ _ _ _ z.I.I.I.I.z._ ^ _ ^ _ . . s.k.. = v.v.] . X #.$.$.$.$.$.$.$.A @ . .   ",
". . # +.$.$.$.$.$.$.$.$.$.7 . r v.v.= . j.J . K I.I.I.I.I.I.I.P.I.I.I.I.I.I.I.I.I . K j.. = v.v.u . 6 $.$.$.$.$.$.$.$.$.+.# . . ",
". . A $.$.$.$.$.$.$.$.$.$.o.. . L w . . j.n.Q C.F.3.` ` N.I.I.x.z.I.I.N._ ` 3.F.C.Q n.j.. X q L . . o.$.$.$.$.$.$.$.$.$.$.n . . ",
". . D $.$.$.$.$.$.$.&.$.$.$.j . . . . . j.I.I.I.` . . . w I.D.X X F.I.w . . . ` I.I.I.j.. . . . . j $.$.$.$.$.$.$.$.$.$.$.D . . ",
". . 1 $.$.$.$.$.$.$.$.$.$.$.+.. . Q = . j.I.I.I.m.u w r 6.I.S.. . S.I.6.r w p N.I.I.I.j.. = E . . +.$.$.$.$.$.$.$.$.$.$.$.1 . . ",
"  . . < +.$.$.$.$.$.$.$.$.$.n . 3 P.; . j.I.I.I.I.I.I.I.I.I.f.. . S.I.I.I.I.I.I.I.I.I.j.. 3 H.; . n $.$.$.$.$.$.$.$.&.+.< . .   ",
"    . . o v #.$.$.$.$.$.$.$.x . G K.3 . M n.I.I.I.I.I.I.I.j.O . i I.I.I.I.I.I.I.I.I.n.M . 3 K.G . z $.$.$.$.$.$.$.$.v X . .     ",
"      . . . o l +.$.$.$.$.$.x . F K.3 . . . F n.I.I.I.I.k.O . y J.I.I.I.I.I.I.I.n.F . . . 3 K.V . x $.$.$.$.$.O.k @ . . .       ",
"          . . . . , l X.$.$.A . O J.3 . 9 . . . s.I.I.B.O . y J.I.I.I.I.I.I.I.u.. . . 9 . ; S.O . S $.$.X.z , . . . .           ",
"              . . . . . X < l . . T 3 . j.z.q . ! I.I.f.. $ J.I.I.I.I.I.I.I.I.^ . 0 z.j.. 3 Y . . l < X . . . . .               ",
"                    . . . . . . . . . . j.P.E . ! I.I.j.. 3 I.I.I.I.I.I.I.I.P.! . T I.j.. . . . . . . . . .                     ",
"                            . . . . . . j.I.' . 4.I.I.' . X ; ; F I.I.` q x.P.5.. ' I.j.. . . . . .                             ",
"                                    . . j.I.I.N.I.H.H . . . . . O K.I.s . X p.I.N.I.I.j.. .                                     ",
"                                    . . j.I.I.I.I.K . . U f.j.j.C.I.I.C.r . O B.I.I.I.j.. .                                     ",
"                                    . . j.I.I.I.7.. . 7.L U 7.l.l.t.U L S.q . a I.I.I.j.. .                                     ",
"                                    . . j.I.I.I.; . ~ g.. . . . . . . . h.x.. . C.I.I.j.. .                                     ",
"                                    . . l.I.I.h.. X Z.I.' p = X O = s ' I.I.; . t.I.I.j.. .                                     ",
"                                    . . P P.I.` . r I.I.I.I.I.I.I.I.I.I.I.I.B . ^ I.K.G . .                                     ",
"                                      . . P K.~ . K I.I.I.d.3.3.' 3.d.I.I.I.U . ~ P.P . .                                       ",
"                                        . . G m.K n.I.I.N.. . . . . . B.I.I.n.J m.P . .                                         ",
"                                          . . P P.I.I.I.H.K r . . r K H.I.I.I.K.P . .                                           ",
"                                            . . G P.I.I.I.I.A.. . S.I.I.I.I.I.I . .                                             ",
"                                              . . P B.B.B.B.b.. . z.V.V.V.V.P . .                                               ",
"                                                . . . . . . . . . . . . . . . .                                                 ",
"                                                . . . . . . . . . . . . . . . .                                                 ",
"                                                  . F S.S.S.B.. . B.S.S.S.F .                                                   ",
"                                                  . G H.K.K.D.= = D.H.H.H.G .                                                   ",
"                                                  . G K.K.K.K.S.S.K.K.K.K.G .                                                   ",
"                                            . . . . $ t t t ' P.K.' t t t $ . . . .                                             ",
"                                          . . . . . . . . . . n.n.. . . . . . . . . .                                           ",
"                                          . . f } } } } } 4 . G F . 4 } } } } } f . .                                           ",
"                                          . . Z 8.8.8.9.8.... . . . ..8.8.8.8.8.Z . .                                           ",
"                                          . . 4 m m m m m m + . . + m m C m m m 4 . .                                           ",
"                            . . . . . . . . . . . . . . . . . . . . . . . . . . . . . . . . . . . . .                           ",
"            . . . . . . . . . . . . . X : d c m m m m m m m c . . c m m m m m m m c d > X . . . . . . . . . . . . . .           ",
"        . . . . . . . X : d m [  .<.8.q.q.q.q.q.q.q.q.q.q.q.9.. . 9.q.q.q.q.w.q.q.q.q.q.q.0.1...{ Z g 5 % . . . . . . . .       ",
"      . . + m [  .<.8.q.q.q.q.q.q.q.q.q.q.q.q.q.q.q.q.q.q.q.9.. . 0.q.q.q.q.q.q.q.q.q.q.q.q.q.q.q.q.q.q.q.w.2.:.| [ m X .       ",
"      . . ..q.q.q.q.q.q.q.q.q.q.q.q.q.q.q.q.q.q.q.q.q.q.q.q.9.. . 9.q.q.q.q.q.q.q.q.q.q.q.q.q.q.q.q.q.q.q.q.q.q.q.q.w.C . .     ",
"    . . g 2.2.2.2.2.2.2.2.2.2.2.2.2.2.2.2.2.2.2.2.2.2.2.2.2.<.. . <.2.2.2.2.2.2.2.2.2.2.2.2.2.2.2.2.2.2.2.2.2.2.2.2.2.<.. .     ",
"  . . . . . . . . . . . . . . . . . . . . . . . . . . . . . . . . . . . . . . . . . . . . . . . . . . . . . . . . . . . . . .   ",
"  . . . . . . . . . . . . . . . . . . . . . . . . . . . . . . . . . . . . . . . . . . . . . . . . . . . . . . . . . . . . . .   "
};
