/* XPM */
static char *_b78b2db435c43ed8b0dc20817d2d81diM6uD5FEMbVY8RX8[] = {
/* columns rows colors chars-per-pixel */
"64 64 136 2 ",
"   c None",
".  c #000000",
"X  c #060A01",
"o  c #090E03",
"O  c #0B1302",
"+  c #0E1B00",
"@  c #101606",
"#  c #111C03",
"$  c #141C09",
"%  c #122000",
"&  c #172900",
"*  c #192C01",
"=  c #1A240B",
"-  c #1D290B",
";  c #1D3400",
":  c #222F0E",
">  c #223C00",
",  c #273510",
"<  c #2B3B12",
"1  c #264300",
"2  c #284700",
"3  c #2A4B00",
"4  c #2E5300",
"5  c #315600",
"6  c #345C00",
"7  c #2E4013",
"8  c #304214",
"9  c #364B17",
"0  c #3A4F18",
"q  c #3D541A",
"w  c #356000",
"e  c #396600",
"r  c #3C6C00",
"t  c #3F7200",
"y  c #425B1B",
"u  c #417500",
"i  c #447A00",
"p  c #46601D",
"a  c #4B671F",
"s  c #4B6A1C",
"d  c #4E6B20",
"f  c #537323",
"g  c #5B7C26",
"h  c #468200",
"j  c #4A8400",
"k  c #4C8C00",
"l  c #508E00",
"z  c #4E9100",
"x  c #539500",
"c  c #559C00",
"v  c #599E00",
"b  c #5A861C",
"n  c #65971F",
"m  c #57A100",
"M  c #5CA400",
"N  c #5DAA00",
"B  c #5FB100",
"V  c #62AE00",
"C  c #63B400",
"Z  c #65BB00",
"A  c #6ABD00",
"S  c #608328",
"D  c #679326",
"F  c #6A912C",
"G  c #6F982E",
"H  c #6BA220",
"J  c #7CB828",
"K  c #77A332",
"L  c #7CAA34",
"P  c #7EB230",
"I  c #6BC300",
"U  c #6ECA00",
"Y  c #70C600",
"T  c #73CC00",
"R  c #75D500",
"E  c #77DC00",
"W  c #7FD216",
"Q  c #7DE007",
"!  c #84B537",
"~  c #85B935",
"^  c #87B938",
"/  c #8ABD39",
"(  c #82E20D",
")  c #87E513",
"_  c #8AE616",
"`  c #8CE719",
"'  c #8FE81D",
"]  c #91E91F",
"[  c #86C32F",
"{  c #8AC136",
"}  c #8DC23A",
"|  c #90C63C",
" . c #94CB3E",
".. c #94D237",
"X. c #96D13C",
"o. c #8EE021",
"O. c #91E522",
"+. c #95EB24",
"@. c #9DEE2D",
"#. c #9BE532",
"$. c #9EEF31",
"%. c #9FF031",
"&. c #A5EE3C",
"*. c #A3F135",
"=. c #A8F33B",
"-. c #A8F43C",
";. c #AAF53E",
":. c #ABF53F",
">. c #9ED942",
",. c #A0DC43",
"<. c #A6E446",
"1. c #A8E646",
"2. c #A8E746",
"3. c #ACEE47",
"4. c #ABEB48",
"5. c #ACEC48",
"6. c #ADEE48",
"7. c #AEEF49",
"8. c #ADF641",
"9. c #ADF642",
"0. c #AEF047",
"q. c #AFF645",
"w. c #AFF049",
"e. c #B0F745",
"r. c #B1F745",
"t. c #B1F34A",
"y. c #B2F54B",
"u. c #B3F64B",
"i. c #B3F848",
"p. c #B4F94A",
"a. c #B5F94A",
"s. c #B5FA4B",
"d. c #B6FA4B",
"f. c #B5F94C",
"g. c #B6FA4C",
"h. c #B4F94A",
/* pixels */
"                                            . . . . .                                                                           ",
"                                        . . . o = O . . .                                                                       ",
"                                      . . g 2.g.g.g.5.F . .                                                                     ",
"                                      . . X 9 f g f 0 o . .                                                                     ",
"                                      . . O . . . . . O . .                                                                     ",
"      . .                             . . c U m l v Y v . .                                                                     ",
"      . . . .                           . h Q R T T T j .                                                                       ",
"      . . = . . .                       . r E E T T T u .                                                                       ",
"        . y / < . . .                   . w Q R T T T 6 .                                                                       ",
"        . . X.e.! - . .                 . w E E T T T 3 .                                                                       ",
"          . y :.:.7.0 . .               . 6 E R T T T 1 .                                                                       ",
"          . . | *.*.f.g . .             . w E R T T T > .                                                                       ",
"            . = 2.@.*.g.L o .           . w E R T T T > .                                                                       ",
"            . . < u.+.+.g./ . .         . w E R T T Y > .                                                                       ",
"              . . d f.] ] s.d . .       . w E E T T T 3 .                                                                       ",
"                . . G s.` _ 4.= .       . w E R T T T 5 .                                                                       ",
"                  . . f 3.) ) ~ . .     . w E E T T T w .                                                                       ",
"                    . . = } ) ( @ .     . u E E T T T u .                                                                       ",
"                      . . . y k ; .     . z E E T T T l . .                                                                     ",
"                          . . . . .   . . M Q E T T T N . .                                                                     ",
"                                . . . . . I E E T T T A . .         . . . . . . . .                                             ",
"                  . . . . . .     . . . . R E E R T T T X .       . . O 9 d g p < X .                                           ",
"            . . . . X = < - . . . . . . . 4 c Z I V x 5 . .       . . K u.f.f.f.2.d . .                                         ",
"        . . . @ a } =.+.Q T * . .     . . . . . . . . . . .       . . . . = = @ . . . .                                         ",
"      . . $ K &.O.( ) O.n = . .       . . r r 3 ; 3 r r . .       . . 5 ; O . & 2 > .                               . . .       ",
"    . . a #.@.@...L g $ . . .           . z R R T T T x . .       . . I E T T T T r .                           . . . . .       ",
"  . . . o @ $ o . . . . .               . i E R T T T i .         . . N E R T T T 5 .                       . . . < < .         ",
"    . . . . . . . .                     . w E E T T T e .           . x E R T T T > .                   . . . < } 7.. .         ",
"                                        . w Q E T T T 5 .           . z E R T T T & .                 . . O ! f.g.d . .         ",
"                                        . w E E T T T 3 .           . z E R T T T ; X               . . : >.e.9.7.X .           ",
"                                        . 6 E R T T T > .           . k E R T T T T               . . q w.9.=.f.y . .           ",
"                                        . w E R T T T ; .           . z E R T T T T             . . S f.-.@.f.K . .             ",
"                                        . w E R T T T ; .           . k E R T T T T           . . g f.=.+.f.>.. .               ",
"                                        . w E R T T T 1 .           . k E R T T T T         . . : u.@.` f.2.O . .               ",
"                                        . w E E T T T 4 .           . k E R T T T 4 o       . X >.+.) s.u., . .                 ",
"                                        . w Q R T T T 5 .           . k E R T T T & .     X . g o.( i.>.< . .                   ",
"                                        . r E E T T T r .           . z E R R T T 1 .     @ . o.Q 9.F X . .                     ",
"                                        . i E E T T T i .         . . N E R T T T 5 .     o # R P 7 . .                         ",
"                                      . . c E E T T T v . .       . . I E E T T T r .     . . . . . .                           ",
"                                      . . C E E T T T C . .       . . R E E T T T j . . . . X o .                               ",
"                                      . . U E E T T T T . .       . O E E E R T T v . . . .       . .                           ",
"                                      . . I E E R T T A X .       . % R E E T T T V . . . . . . . . . . . . . .                 ",
"                                      . . X ; 4 e 4 > X . .       . . + 4 r i w 1 X . .   . . . + H X./ K g $ . . .             ",
"                                      . . O . . . . . o . .       . . . . . . . . . . .       * . w R _ %.i.f.} q . . .         ",
"                                      . . c U N l M A M . .       . . I V k i x C i .           o . $ b o.` ' *.u.<., . . .     ",
"                                        . k R R T T T k . .       . . Z E T T T T e .             = X . O 8 d D J [ { d . . .   ",
"                                        . r E R T T T u .         . . m E R R T T 3 .                 X . . . . . . . . . . .   ",
"                                        . 5 Q E T T T w .           . z E R T T T > .                         . . . . .         ",
"                                        . 1 E E U R T 4 .           . z E R T T T * .                                           ",
"                                        . ; Q R U U T 1 .           . z E R T T T % .                                           ",
"                                        w B Q R T T T ; .           . k E R T T T O .                                           ",
"                                          Q Q R T T T ; .           . k E R T T T X .                                           ",
"                                          E E R T T T > .           . k E R T T T O .                                           ",
"                                          E E E T T T 1 .           . k E R T T T % .                                           ",
"                                        * B E E T T T 4 .           . k E R T T T & .                                           ",
"                                        . 6 E E T T T w .           . k E R T T T > .                                           ",
"                                        . t E E T T T u .         . . c Q E U T T 3 .                                           ",
"                                        . k E E T T T k . .       . . B E E T T T w .                                           ",
"                                      . . M E E T T T M . .       . . U Q R T T T i .                                           ",
"                                      . . Z E Q T T T A . .       . . Q E E T T T l . .                                         ",
"                                      . . R E E R T T T X .       . # E E Q U U T N . .                                         ",
"                                      . . e B R T I V u X .       . O z U Q T R C e . .                                         ",
"                                        . . . . X . . . .           . . . o + X . . .                                           ",
"                                            . . . . .                   . . . . .                                               "
};
